<svg xmlns="http://www.w3.org/2000/svg" version="1.1" xmlns:xlink="http://www.w3.org/1999/xlink" xmlns:svgjs="http://svgjs.dev/svgjs" width="1440" height="560" preserveAspectRatio="none" viewBox="0 0 1440 560"><g mask="url(&quot;#SvgjsMask1003&quot;)" fill="none"><path d="M 0,17 C 57.6,66 172.8,257 288,262 C 403.2,267 460.8,64.4 576,42 C 691.2,19.6 748.8,143.4 864,150 C 979.2,156.6 1036.8,68 1152,75 C 1267.2,82 1382.4,163 1440,185L1440 560L0 560z" fill="rgba(189, 82, 216, 1)"></path><path d="M 0,445 C 96,439 288,403.6 480,415 C 672,426.4 768,501.8 960,502 C 1152,502.2 1344,433.2 1440,416L1440 560L0 560z" fill="rgba(234, 73, 156, 1)"></path></g><defs><mask id="SvgjsMask1003"><rect width="1440" height="560" fill="#ffffff"></rect></mask></defs></svg>